<svg width="24" height="24" viewBox="0 0 24 24" fill="none" xmlns="http://www.w3.org/2000/svg">
<g id="monedita AC">
<circle id="Ellipse 6" cx="12" cy="12" r="12" fill="#FFC854"/>
<circle id="Ellipse 7" cx="12.0001" cy="12.001" r="9.47368" fill="#FF8D00"/>
<g id="Vector">
<path d="M7.58377 11.7134L9.81552 9.48162C10.0884 9.20873 10.3738 9.48162 10.3738 9.48162L10.9931 10.1009L12.0984 8.99565C11.7146 8.61185 11.3756 8.27291 11.1999 8.09721C10.0834 6.98071 8.97815 8.086 8.97815 8.086L6.18815 10.876C5.06168 12.0025 6.17693 13.119 6.17693 13.119L8.82737 15.7694C8.82737 15.7694 8.96693 15.909 9.13391 15.742C9.19621 15.6797 9.2498 15.6261 9.2498 15.347C9.2498 15.1651 9.2498 13.9352 9.2498 13.9352L7.58253 12.2704C7.29842 11.9863 7.58253 11.7121 7.58253 11.7121L7.58377 11.7134Z" fill="#FFF7E6"/>
<path d="M13.5874 10.4835L12.4821 11.5888L12.6067 11.7134C12.8796 11.9863 12.6067 12.2716 12.6067 12.2716L10.9195 13.9613C10.9195 13.9613 10.922 15.1003 10.9195 15.2822C10.9158 15.57 10.9781 15.6635 11.0441 15.7308C11.2111 15.8978 11.3582 15.752 11.3582 15.752C11.3582 15.752 13.4541 13.656 14.0024 13.1078C15.1077 12.0025 13.9912 10.886 13.9912 10.886C13.9912 10.886 13.8317 10.7265 13.5874 10.4822V10.4835Z" fill="#FFF7E6"/>
<path d="M18.2353 12.952C18.173 12.8897 18.1195 12.8361 17.8403 12.8361C17.6584 12.8361 16.4285 12.8361 16.4285 12.8361L14.7637 14.5034C14.4796 14.7875 14.2055 14.5034 14.2055 14.5034L13.5974 13.8953L12.4809 15.0118L13.3681 15.899C14.4946 17.0255 15.6111 15.9102 15.6111 15.9102L18.2615 13.2598C18.2615 13.2598 18.4011 13.1202 18.2341 12.9532L18.2353 12.952Z" fill="#FFF7E6"/>
<path d="M12.0984 12.3962L11.9737 12.2716C11.7009 11.9987 11.9737 11.7134 11.9737 11.7134L14.2067 9.48163C14.4796 9.20749 14.765 9.48163 14.765 9.48163L16.4547 11.1688C16.4547 11.1688 17.5936 11.1663 17.7756 11.1688C18.0634 11.1726 18.1569 11.1103 18.2241 11.0442C18.3911 10.8773 18.2453 10.7302 18.2453 10.7302C18.2453 10.7302 16.1494 8.63428 15.6011 8.086C14.4958 6.98072 13.3793 8.09722 13.3793 8.09722C13.3793 8.09722 12.8772 8.59939 12.2903 9.1863C11.9214 9.55515 11.5177 9.95888 11.185 10.2916L10.5893 10.8872C9.47284 12.0037 10.5781 13.109 10.5781 13.109L10.9819 13.5127L12.0971 12.3962H12.0984Z" fill="#FFF7E6"/>
</g>
</g>
</svg>
